# xmcd
#
# Track frame offsets: 
#        150
#        28770
#        47804
#        70887
#        86828
#        108367
#        129365
#        151655
#
# Disc length: 2297 seconds
#
# Revision: 0
# Processed by: cddbd v1.5.2PL0 Copyright (c) Steve Scherf et al.
# Submitted via: ExactAudioCopyFreeDBPlugin 1.0
#
DISCID=6108f708
DTITLE=Prana People - Prana People
DYEAR=1977
DGENRE=Disco
TTITLE0=Pranian Man
TTITLE1=Is Your Life A Party?
TTITLE2=Wishful Thinking
TTITLE3=Time, Weave Your Spell
TTITLE4=Angels Say Flee
TTITLE5=Rainbow
TTITLE6=All Around My World
TTITLE7=Disco-Mania
EXTD=
EXTT0=
EXTT1=
EXTT2=
EXTT3=
EXTT4=
EXTT5=
EXTT6=
EXTT7=
PLAYORDER=
